<svg xmlns="http://www.w3.org/2000/svg" viewBox="0 0 47.94 47.94"><path d="M26.285 2.486l5.407 10.956c.376.762 1.103 1.29 1.944 1.412l12.09 1.757c2.12.31 2.964 2.91 1.432 4.404l-8.75 8.528c-.607.593-.885 1.448-.74 2.285L39.73 43.87c.362 2.108-1.852 3.716-3.746 2.72l-10.814-5.684c-.752-.395-1.65-.395-2.403 0L11.954 46.59c-1.894.997-4.108-.612-3.746-2.72l2.064-12.043c.144-.837-.134-1.692-.742-2.285l-8.75-8.528c-1.53-1.494-.686-4.096 1.432-4.403l12.09-1.756c.842-.122 1.57-.65 1.945-1.412l5.406-10.956c.946-1.92 3.682-1.92 4.63 0z" fill="#ED8A19"/></svg>