<svg xmlns="http://www.w3.org/2000/svg" viewBox="0 0 49.94 49.94" width="512" height="512"><path d="M48.856 22.73c.983-.957 1.33-2.363.906-3.67-.425-1.307-1.532-2.24-2.892-2.438l-12.092-1.757c-.515-.075-.96-.398-1.19-.865L28.182 3.043c-.607-1.23-1.84-1.996-3.212-1.996s-2.604.765-3.21 1.996L16.35 14c-.23.467-.676.79-1.19.865L3.068 16.623C1.71 16.82.602 17.753.177 19.06c-.424 1.307-.077 2.713.906 3.67l8.75 8.53c.372.363.543.887.455 1.4L8.223 44.7c-.232 1.353.313 2.694 1.424 3.502 1.11.81 2.555.914 3.772.273l10.814-5.686c.46-.24 1.01-.24 1.472 0l10.815 5.687c.53.278 1.1.415 1.67.415.74 0 1.475-.23 2.103-.688 1.11-.808 1.656-2.15 1.424-3.502L39.65 32.66c-.087-.513.084-1.036.457-1.4l8.75-8.53zM37.68 33l2.066 12.042c.104.606-.13 1.185-.63 1.547-.498.36-1.12.405-1.664.12l-10.815-5.686c-.52-.272-1.095-.41-1.667-.41s-1.145.138-1.667.412L12.49 46.708c-.547.284-1.168.24-1.666-.12-.498-.363-.732-.94-.63-1.548l2.066-12.042c.2-1.162-.186-2.348-1.03-3.17l-8.75-8.53c-.44-.43-.59-1.035-.4-1.62.19-.586.667-.988 1.276-1.077l12.09-1.756c1.168-.17 2.177-.9 2.698-1.96L23.55 3.93c.273-.552.804-.88 1.42-.88.615 0 1.145.328 1.418.88l5.407 10.957c.52 1.058 1.53 1.79 2.696 1.96L46.584 18.6c.61.09 1.086.492 1.276 1.078.19.585.04 1.19-.4 1.62l-8.75 8.53c-.844.822-1.23 2.007-1.03 3.17z" fill="#C9C9C9"/></svg>